<svg width="337" height="83" viewBox="0 0 337 83" fill="none" xmlns="http://www.w3.org/2000/svg">
<path d="M69 41C69 31.0589 77.0589 23 87 23C96.9411 23 105 31.0589 105 41V45.2857H100.286C99.9447 45.2857 99.6177 45.4212 99.3766 45.6623C99.1355 45.9034 99 46.2304 99 46.5714V60.2857C99 60.9954 99.576 61.5714 100.286 61.5714H102.429C103.793 61.5714 105.101 61.0296 106.065 60.0651C107.03 59.1006 107.571 57.7925 107.571 56.4285V41C107.571 29.6394 98.3606 20.4286 87 20.4286C75.6394 20.4286 66.4286 29.6394 66.4286 41V56.4285C66.4286 57.7925 66.9704 59.1006 67.9349 60.0651C68.8993 61.0296 70.2074 61.5714 71.5714 61.5714H73.7143C74.0553 61.5714 74.3823 61.4359 74.6234 61.1948C74.8645 60.9537 75 60.6267 75 60.2857V46.5714C75 46.2304 74.8645 45.9034 74.6234 45.6623C74.3823 45.4212 74.0553 45.2857 73.7143 45.2857H69V41ZM88.2857 40.5714C88.2857 40.2304 88.1503 39.9034 87.9091 39.6623C87.668 39.4212 87.341 39.2857 87 39.2857C86.659 39.2857 86.332 39.4212 86.0909 39.6623C85.8497 39.9034 85.7143 40.2304 85.7143 40.5714V62C85.7143 62.341 85.8497 62.668 86.0909 62.9091C86.332 63.1502 86.659 63.2857 87 63.2857C87.341 63.2857 87.668 63.1502 87.9091 62.9091C88.1503 62.668 88.2857 62.341 88.2857 62V40.5714ZM80.5714 44.8571C80.9124 44.8571 81.2394 44.9926 81.4806 45.2337C81.7217 45.4748 81.8571 45.8018 81.8571 46.1428V55.1428C81.8571 55.4838 81.7217 55.8109 81.4806 56.052C81.2394 56.2931 80.9124 56.4285 80.5714 56.4285C80.2304 56.4285 79.9034 56.2931 79.6623 56.052C79.4212 55.8109 79.2857 55.4838 79.2857 55.1428V46.1428C79.2857 45.8018 79.4212 45.4748 79.6623 45.2337C79.9034 44.9926 80.2304 44.8571 80.5714 44.8571ZM94.7143 46.1428C94.7143 45.8018 94.5788 45.4748 94.3377 45.2337C94.0966 44.9926 93.7696 44.8571 93.4286 44.8571C93.0876 44.8571 92.7606 44.9926 92.5194 45.2337C92.2783 45.4748 92.1429 45.8018 92.1429 46.1428V55.1428C92.1429 55.4838 92.2783 55.8109 92.5194 56.052C92.7606 56.2931 93.0876 56.4285 93.4286 56.4285C93.7696 56.4285 94.0966 56.2931 94.3377 56.052C94.5788 55.8109 94.7143 55.4838 94.7143 55.1428V46.1428Z" fill="url(#paint0_linear_15_3)"/>
<path d="M3.52 56.408V50.776H10.816V54.168L13.248 56.6H27.2L29.76 54.04V45.784L27.264 43.288H10.24L3.648 36.76V24.792L10.24 18.2H29.952L36.544 24.792V30.488H29.248V27.032L26.752 24.6H13.44L10.944 27.032V34.456L13.44 36.888H30.464L37.056 43.48V56.28L30.336 63H10.112L3.52 56.408ZM60.602 37.464L54.202 41.816V63H46.97V46.744L40.57 51.096V44.632L46.97 40.28V17.304H54.202V35.288L60.602 30.936V37.464ZM114.895 56.664V37.464L121.167 31.128H137.999L144.335 37.528V42.776H137.103V39.832L134.543 37.336H124.687L122.127 39.832V54.296L124.687 56.792H134.543L137.103 54.296V51.352H144.335V56.6L137.999 63H121.167L114.895 56.664ZM150.723 17.304H157.955V36.632L163.458 31.128H173.507L180.227 37.848V63H172.995V39.832L170.499 37.336H164.611L157.955 44.056V63H150.723V17.304ZM187.263 57.304V49.752L192.959 44.12H209.407V39.384L207.039 37.016H196.991L194.623 39.384V41.432H187.519V37.72L194.047 31.128H209.983L216.511 37.72V63H209.919V58.072L204.799 63H192.959L187.263 57.304ZM204.095 57.304L209.407 52.184V49.496H196.415L194.367 51.48V55.384L196.287 57.304H204.095ZM221.35 31.128H228.71L232.934 53.336H233.19L239.59 31.128H246.246L252.07 53.336H252.326L256.998 31.128H264.358L256.166 63H249.19L242.918 39.896H242.662L235.942 63H228.966L221.35 31.128ZM270.098 17.304H277.33V43.352H283.538L292.05 31.128H300.05L289.362 46.488L300.69 63H292.69L283.41 49.496H277.33V63H270.098V17.304ZM303.263 57.304V49.752L308.959 44.12H325.407V39.384L323.039 37.016H312.991L310.623 39.384V41.432H303.519V37.72L310.047 31.128H325.983L332.511 37.72V63H325.919V58.072L320.799 63H308.959L303.263 57.304ZM320.095 57.304L325.407 52.184V49.496H312.415L310.367 51.48V55.384L312.287 57.304H320.095Z" fill="url(#paint1_linear_15_3)"/>
<defs>
<linearGradient id="paint0_linear_15_3" x1="87" y1="20.4286" x2="87" y2="63.2857" gradientUnits="userSpaceOnUse">
<stop stop-color="#D3EBCD"/>
<stop offset="0.432768" stop-color="#AEDBCE"/>
<stop offset="0.707085" stop-color="#839AA8"/>
<stop offset="0.953125" stop-color="#635666"/>
</linearGradient>
<linearGradient id="paint1_linear_15_3" x1="168.5" y1="0" x2="168.5" y2="83" gradientUnits="userSpaceOnUse">
<stop stop-color="#D3EBCD"/>
<stop offset="0.385417" stop-color="#AEDBCE"/>
<stop offset="0.880208" stop-color="#839AA8"/>
<stop offset="1" stop-color="#635666"/>
</linearGradient>
</defs>
</svg>
