<?xml version="1.0" standalone="no"?><svg xmlns="http://www.w3.org/2000/svg" viewBox="0 0 1440 320"><path fill="#88304E" fill-opacity="1" d="M0,160L26.7,165.3C53.3,171,107,181,160,202.7C213.3,224,267,256,320,245.3C373.3,235,427,181,480,149.3C533.3,117,587,107,640,133.3C693.3,160,747,224,800,240C853.3,256,907,224,960,202.7C1013.3,181,1067,171,1120,170.7C1173.3,171,1227,181,1280,154.7C1333.3,128,1387,64,1413,32L1440,0L1440,320L1413.3,320C1386.7,320,1333,320,1280,320C1226.7,320,1173,320,1120,320C1066.7,320,1013,320,960,320C906.7,320,853,320,800,320C746.7,320,693,320,640,320C586.7,320,533,320,480,320C426.7,320,373,320,320,320C266.7,320,213,320,160,320C106.7,320,53,320,27,320L0,320Z"></path></svg>